<?xml version="1.0" encoding="UTF-8" standalone="no"?>
<!-- Created with Inkscape (http://www.inkscape.org/) -->

<svg
   width="39.799999mm"
   height="84.290321mm"
   viewBox="0 0 39.799999 84.290321"
   version="1.1"
   id="svg172157"
   inkscape:version="1.2-dev (da2df6f, 2021-07-26)"
   sodipodi:docname="led-button-placement.svg"
   xmlns:inkscape="http://www.inkscape.org/namespaces/inkscape"
   xmlns:sodipodi="http://sodipodi.sourceforge.net/DTD/sodipodi-0.dtd"
   xmlns="http://www.w3.org/2000/svg"
   xmlns:svg="http://www.w3.org/2000/svg">
  <sodipodi:namedview
     id="namedview172159"
     pagecolor="#ffffff"
     bordercolor="#666666"
     borderopacity="1.0"
     inkscape:pageshadow="2"
     inkscape:pageopacity="0.0"
     inkscape:pagecheckerboard="0"
     inkscape:document-units="mm"
     showgrid="false"
     fit-margin-top="10"
     lock-margins="true"
     fit-margin-left="10"
     fit-margin-right="10"
     fit-margin-bottom="10"
     inkscape:zoom="0.77771465"
     inkscape:cx="-221.16081"
     inkscape:cy="144.6546"
     inkscape:window-width="3840"
     inkscape:window-height="1137"
     inkscape:window-x="-8"
     inkscape:window-y="-8"
     inkscape:window-maximized="1"
     inkscape:current-layer="layer1" />
  <defs
     id="defs172154" />
  <g
     inkscape:label="Layer 1"
     inkscape:groupmode="layer"
     id="layer1"
     transform="translate(-163.47112,-110.26721)">
    <path
       id="rect133086"
       style="display:inline;fill:none;stroke:#ff0000;stroke-width:0.3;shape-rendering:crispEdges;stop-color:#000000"
       d="m 174.6464,120.41721 h 17.44945 c 0.568,0 1.02527,0.45728 1.02527,1.02528 v 17.44944 c 0,0.56801 -0.45727,1.02528 -1.02527,1.02528 H 174.6464 c -0.568,0 -1.02528,-0.45727 -1.02528,-1.02528 v -17.44944 c 0,-0.568 0.45728,-1.02528 1.02528,-1.02528 z" />
    <path
       id="rect133088"
       style="display:inline;fill:none;stroke:#ff0000;stroke-width:0.3;shape-rendering:crispEdges;stop-color:#000000"
       d="m 176.21403,121.9849 h 14.31444 c 0.56801,0 1.02528,0.45728 1.02528,1.02528 v 14.31444 c 0,0.56801 -0.45727,1.02528 -1.02528,1.02528 h -14.31444 c -0.568,0 -1.02528,-0.45727 -1.02528,-1.02528 v -14.31444 c 0,-0.568 0.45728,-1.02528 1.02528,-1.02528 z" />
    <path
       id="rect114952"
       style="display:inline;fill:none;stroke:#ff0000;stroke-width:0.3;shape-rendering:crispEdges;stop-color:#000000"
       d="m 176.21379,172.04253 h 14.31444 c 0.568,0 1.02528,0.45727 1.02528,1.02528 v 10.31444 c 0,0.568 -0.45728,1.02528 -1.02528,1.02528 h -14.31444 c -0.56801,0 -1.02528,-0.45728 -1.02528,-1.02528 v -10.31444 c 0,-0.56801 0.45727,-1.02528 1.02528,-1.02528 z" />
    <path
       id="path115006"
       style="display:inline;vector-effect:none;fill:none;stroke:#ff0000;stroke-width:0.3;paint-order:stroke markers fill;shape-rendering:crispEdges;stop-color:#000000"
       d="m 186.73872,180.20482 a 3.3675961,3.3675961 0 0 1 -3.3676,3.36759 3.3675961,3.3675961 0 0 1 -3.36759,-3.36759 3.3675961,3.3675961 0 0 1 3.36759,-3.3676 3.3675961,3.3675961 0 0 1 3.3676,3.3676 z" />
    <path
       id="circle115285"
       style="display:inline;vector-effect:none;fill:none;stroke:#ff0000;stroke-width:0.300001;paint-order:stroke markers fill;shape-rendering:crispEdges;stop-color:#000000"
       d="m 185.22112,174.85216 a 1.8499995,1.8499995 0 0 1 -1.85,1.85 1.8499995,1.8499995 0 0 1 -1.85,-1.85 1.8499995,1.8499995 0 0 1 1.85,-1.85 1.8499995,1.8499995 0 0 1 1.85,1.85 z" />
    <path
       id="rect115329"
       style="display:inline;fill:none;stroke:#ff0000;stroke-width:0.3;shape-rendering:crispEdges;stop-color:#000000"
       d="m 177.00902,173.07152 h 12.72421 c 0.17932,0 0.32369,0.14436 0.32369,0.32368 v 3.25187 c 0,0.17932 -0.14437,0.32369 -0.32369,0.32369 h -12.72421 c -0.17932,0 -0.32369,-0.14437 -0.32369,-0.32369 v -3.25187 c 0,-0.17932 0.14437,-0.32368 0.32369,-0.32368 z" />
    <path
       id="rect115586"
       style="display:inline;fill:none;stroke:#ff0000;stroke-width:0.3;shape-rendering:crispEdges;stop-color:#000000"
       d="m 177.00902,178.4503 h 12.72421 c 0.17932,0 0.32369,0.14437 0.32369,0.32369 v 3.90667 c 0,0.17932 -0.14437,0.32368 -0.32369,0.32368 h -12.72421 c -0.17932,0 -0.32369,-0.14436 -0.32369,-0.32368 v -3.90667 c 0,-0.17932 0.14437,-0.32369 0.32369,-0.32369 z" />
    <path
       id="circle133072"
       style="display:inline;vector-effect:none;fill:none;stroke:#ff0000;stroke-width:0.3;paint-order:stroke markers fill;shape-rendering:crispEdges;stop-color:#000000"
       d="m 186.73872,130.13109 a 3.3675961,3.3675961 0 0 1 -3.3676,3.36759 3.3675961,3.3675961 0 0 1 -3.36759,-3.36759 3.3675961,3.3675961 0 0 1 3.36759,-3.3676 3.3675961,3.3675961 0 0 1 3.3676,3.3676 z" />
    <path
       id="circle133074"
       style="display:inline;vector-effect:none;fill:none;stroke:#ff0000;stroke-width:0.300001;paint-order:stroke markers fill;shape-rendering:crispEdges;stop-color:#000000"
       d="m 185.22112,124.73167 a 1.8499995,1.8499995 0 0 1 -1.85,1.85 1.8499995,1.8499995 0 0 1 -1.85,-1.85 1.8499995,1.8499995 0 0 1 1.85,-1.85 1.8499995,1.8499995 0 0 1 1.85,1.85 z" />
    <path
       id="circle133160"
       style="display:inline;vector-effect:none;fill:none;stroke:#ff0000;stroke-width:0.300001;paint-order:stroke markers fill;shape-rendering:crispEdges;stop-color:#000000"
       inkscape:transform-center-x="-0.00017285157"
       inkscape:transform-center-y="5.4357638"
       transform="scale(-1)"
       d="m -181.52103,-135.5305 a 1.8499995,1.8499995 0 0 1 -1.85,1.85 1.8499995,1.8499995 0 0 1 -1.85,-1.85 1.8499995,1.8499995 0 0 1 1.85,-1.85 1.8499995,1.8499995 0 0 1 1.85,1.85 z" />
  </g>
</svg>
