  0
SECTION
  2
HEADER
  9
$ACADVER
  1
AC1014
  9
$HANDSEED
  5
FFFF
  9
$MEASUREMENT
 70
     1
  0
ENDSEC
  0
SECTION
  2
TABLES
  0
TABLE
  2
VPORT
  5
8
330
0
100
AcDbSymbolTable
 70
     4
  0
VPORT
  5
2E
330
8
100
AcDbSymbolTableRecord
100
AcDbViewportTableRecord
  2
*ACTIVE
 70
     0
 10
0.0
 20
0.0
 11
1.0
 21
1.0
 12
210.0
 22
148.5
 13
0.0
 23
0.0
 14
10.0
 24
10.0
 15
10.0
 25
10.0
 16
0.0
 26
0.0
 36
1.0
 17
0.0
 27
0.0
 37
0.0
 40
341.0
 41
1.24
 42
50.0
 43
0.0
 44
0.0
 50
0.0
 51
0.0
 71
     0
 72
   100
 73
     1
 74
     3
 75
     0
 76
     0
 77
     0
 78
     0
  0
ENDTAB
  0
TABLE
  2
LTYPE
  5
5
330
0
100
AcDbSymbolTable
 70
     1
  0
LTYPE
  5
14
330
5
100
AcDbSymbolTableRecord
100
AcDbLinetypeTableRecord
  2
BYBLOCK
 70
     0
  3

 72
    65
 73
     0
 40
0.0
  0
LTYPE
  5
15
330
5
100
AcDbSymbolTableRecord
100
AcDbLinetypeTableRecord
  2
BYLAYER
 70
     0
  3

 72
    65
 73
     0
 40
0.0
  0
LTYPE
  5
16
330
5
100
AcDbSymbolTableRecord
100
AcDbLinetypeTableRecord
  2
CONTINUOUS
 70
     0
  3
Solid line
 72
    65
 73
     0
 40
0.0
  0
ENDTAB
  0
TABLE
  2
LAYER
  5
2
100
AcDbSymbolTable
 70
2
  0
LAYER
  5
50
100
AcDbSymbolTableRecord
100
AcDbLayerTableRecord
  2
0
 70
0
  6
CONTINUOUS
  0
LAYER
  5
51
100
AcDbSymbolTableRecord
100
AcDbLayerTableRecord
  2
Layer_1
 70
0
  6
CONTINUOUS
  0
ENDTAB
  0
TABLE
  2
STYLE
  5
3
330
0
100
AcDbSymbolTable
 70
     1
  0
STYLE
  5
11
330
3
100
AcDbSymbolTableRecord
100
AcDbTextStyleTableRecord
  2
STANDARD
 70
     0
 40
0.0
 41
1.0
 50
0.0
 71
     0
 42
2.5
  3
txt
  4

  0
ENDTAB
  0
TABLE
  2
VIEW
  5
6
330
0
100
AcDbSymbolTable
 70
     0
  0
ENDTAB
  0
TABLE
  2
UCS
  5
7
330
0
100
AcDbSymbolTable
 70
     0
  0
ENDTAB
  0
TABLE
  2
APPID
  5
9
330
0
100
AcDbSymbolTable
 70
     2
  0
APPID
  5
12
330
9
100
AcDbSymbolTableRecord
100
AcDbRegAppTableRecord
  2
ACAD
 70
     0
  0
ENDTAB
  0
TABLE
  2
DIMSTYLE
  5
A
330
0
100
AcDbSymbolTable
 70
     1
  0
DIMSTYLE
105
27
330
A
100
AcDbSymbolTableRecord
100
AcDbDimStyleTableRecord
  2
ISO-25
 70
     0
  3

  4

  5

  6

  7

 40
1.0
 41
2.5
 42
0.625
 43
3.75
 44
1.25
 45
0.0
 46
0.0
 47
0.0
 48
0.0
140
2.5
141
2.5
142
0.0
143
0.03937007874016
144
1.0
145
0.0
146
1.0
147
0.625
 71
     0
 72
     0
 73
     0
 74
     0
 75
     0
 76
     0
 77
     1
 78
     8
170
     0
171
     3
172
     1
173
     0
174
     0
175
     0
176
     0
177
     0
178
     0
270
     2
271
     2
272
     2
273
     2
274
     3
340
11
275
     0
280
     0
281
     0
282
     0
283
     0
284
     8
285
     0
286
     0
287
     3
288
     0
  0
ENDTAB
  0
TABLE
  2
BLOCK_RECORD
  5
1
330
0
100
AcDbSymbolTable
 70
     1
  0
BLOCK_RECORD
  5
1F
330
1
100
AcDbSymbolTableRecord
100
AcDbBlockTableRecord
  2
*MODEL_SPACE
  0
BLOCK_RECORD
  5
1B
330
1
100
AcDbSymbolTableRecord
100
AcDbBlockTableRecord
  2
*PAPER_SPACE
  0
ENDTAB
  0
ENDSEC
  0
SECTION
  2
BLOCKS
  0
BLOCK
  5
20
330
1F
100
AcDbEntity
  8
0
100
AcDbBlockBegin
  2
*MODEL_SPACE
 70
     0
 10
0.0
 20
0.0
 30
0.0
  3
*MODEL_SPACE
  1

  0
ENDBLK
  5
21
330
1F
100
AcDbEntity
  8
0
100
AcDbBlockEnd
  0
BLOCK
  5
1C
330
1B
100
AcDbEntity
 67
     1
  8
0
100
AcDbBlockBegin
  2
*PAPER_SPACE
  1

  0
ENDBLK
  5
1D
330
1B
100
AcDbEntity
 67
     1
  8
0
100
AcDbBlockEnd
  0
ENDSEC
  0
SECTION
  2
ENTITIES
  0
SPLINE
  5
100
100
AcDbEntity
  8
Layer_1
 62
1
100
AcDbSpline
 70
8
 71
3
 72
8
 73
4
 74
0
 40
0
 40
0
 40
0
 40
0
 40
1
 40
1
 40
1
 40
1
 10
28.624857
 20
74.140129
 30
0.0
 10
29.192857
 20
74.140129
 30
0.0
 10
29.650127
 20
73.682849
 30
0.0
 10
29.650127
 20
73.114849
 30
0.0
  0
LWPOLYLINE
  5
101
100
AcDbEntity
  8
Layer_1
 62
1
100
AcDbPolyline
 90
2
 70
0
 10
11.175403
 20
74.140129
 30
0.0
 10
28.624857
 20
74.140129
 30
0.0
  0
SPLINE
  5
102
100
AcDbEntity
  8
Layer_1
 62
1
100
AcDbSpline
 70
8
 71
3
 72
8
 73
4
 74
0
 40
0
 40
0
 40
0
 40
0
 40
1
 40
1
 40
1
 40
1
 10
29.650127
 20
55.665405
 30
0.0
 10
29.650127
 20
55.097395
 30
0.0
 10
29.192857
 20
54.640125
 30
0.0
 10
28.624857
 20
54.640125
 30
0.0
  0
LWPOLYLINE
  5
103
100
AcDbEntity
  8
Layer_1
 62
1
100
AcDbPolyline
 90
2
 70
0
 10
29.650127
 20
73.114849
 30
0.0
 10
29.650127
 20
55.665405
 30
0.0
  0
SPLINE
  5
104
100
AcDbEntity
  8
Layer_1
 62
1
100
AcDbSpline
 70
8
 71
3
 72
8
 73
4
 74
0
 40
0
 40
0
 40
0
 40
0
 40
1
 40
1
 40
1
 40
1
 10
11.175403
 20
54.640125
 30
0.0
 10
10.607403
 20
54.640125
 30
0.0
 10
10.150123
 20
55.097395
 30
0.0
 10
10.150123
 20
55.665405
 30
0.0
  0
LWPOLYLINE
  5
105
100
AcDbEntity
  8
Layer_1
 62
1
100
AcDbPolyline
 90
2
 70
0
 10
28.624857
 20
54.640125
 30
0.0
 10
11.175403
 20
54.640125
 30
0.0
  0
SPLINE
  5
106
100
AcDbEntity
  8
Layer_1
 62
1
100
AcDbSpline
 70
8
 71
3
 72
8
 73
4
 74
0
 40
0
 40
0
 40
0
 40
0
 40
1
 40
1
 40
1
 40
1
 10
10.150123
 20
73.114849
 30
0.0
 10
10.150123
 20
73.682849
 30
0.0
 10
10.607403
 20
74.140129
 30
0.0
 10
11.175403
 20
74.140129
 30
0.0
  0
LWPOLYLINE
  5
107
100
AcDbEntity
  8
Layer_1
 62
1
100
AcDbPolyline
 90
2
 70
0
 10
10.150123
 20
55.665405
 30
0.0
 10
10.150123
 20
73.114849
 30
0.0
  0
LWPOLYLINE
  5
108
100
AcDbEntity
  8
Layer_1
 62
1
100
AcDbPolyline
 90
1
 70
1
 10
11.175403
 20
74.140129
 30
0.0
  0
SPLINE
  5
109
100
AcDbEntity
  8
Layer_1
 62
1
100
AcDbSpline
 70
8
 71
3
 72
8
 73
4
 74
0
 40
0
 40
0
 40
0
 40
0
 40
1
 40
1
 40
1
 40
1
 10
27.057477
 20
72.572439
 30
0.0
 10
27.625487
 20
72.572439
 30
0.0
 10
28.082757
 20
72.115159
 30
0.0
 10
28.082757
 20
71.547159
 30
0.0
  0
LWPOLYLINE
  5
10a
100
AcDbEntity
  8
Layer_1
 62
1
100
AcDbPolyline
 90
2
 70
0
 10
12.743033
 20
72.572439
 30
0.0
 10
27.057477
 20
72.572439
 30
0.0
  0
SPLINE
  5
10b
100
AcDbEntity
  8
Layer_1
 62
1
100
AcDbSpline
 70
8
 71
3
 72
8
 73
4
 74
0
 40
0
 40
0
 40
0
 40
0
 40
1
 40
1
 40
1
 40
1
 10
28.082757
 20
57.232715
 30
0.0
 10
28.082757
 20
56.664705
 30
0.0
 10
27.625487
 20
56.207435
 30
0.0
 10
27.057477
 20
56.207435
 30
0.0
  0
LWPOLYLINE
  5
10c
100
AcDbEntity
  8
Layer_1
 62
1
100
AcDbPolyline
 90
2
 70
0
 10
28.082757
 20
71.547159
 30
0.0
 10
28.082757
 20
57.232715
 30
0.0
  0
SPLINE
  5
10d
100
AcDbEntity
  8
Layer_1
 62
1
100
AcDbSpline
 70
8
 71
3
 72
8
 73
4
 74
0
 40
0
 40
0
 40
0
 40
0
 40
1
 40
1
 40
1
 40
1
 10
12.743033
 20
56.207435
 30
0.0
 10
12.175033
 20
56.207435
 30
0.0
 10
11.717753
 20
56.664705
 30
0.0
 10
11.717753
 20
57.232715
 30
0.0
  0
LWPOLYLINE
  5
10e
100
AcDbEntity
  8
Layer_1
 62
1
100
AcDbPolyline
 90
2
 70
0
 10
27.057477
 20
56.207435
 30
0.0
 10
12.743033
 20
56.207435
 30
0.0
  0
SPLINE
  5
10f
100
AcDbEntity
  8
Layer_1
 62
1
100
AcDbSpline
 70
8
 71
3
 72
8
 73
4
 74
0
 40
0
 40
0
 40
0
 40
0
 40
1
 40
1
 40
1
 40
1
 10
11.717753
 20
71.547159
 30
0.0
 10
11.717753
 20
72.115159
 30
0.0
 10
12.175033
 20
72.572439
 30
0.0
 10
12.743033
 20
72.572439
 30
0.0
  0
LWPOLYLINE
  5
110
100
AcDbEntity
  8
Layer_1
 62
1
100
AcDbPolyline
 90
2
 70
0
 10
11.717753
 20
57.232715
 30
0.0
 10
11.717753
 20
71.547159
 30
0.0
  0
LWPOLYLINE
  5
111
100
AcDbEntity
  8
Layer_1
 62
1
100
AcDbPolyline
 90
1
 70
1
 10
12.743033
 20
72.572439
 30
0.0
  0
SPLINE
  5
112
100
AcDbEntity
  8
Layer_1
 62
1
100
AcDbSpline
 70
8
 71
3
 72
8
 73
4
 74
0
 40
0
 40
0
 40
0
 40
0
 40
1
 40
1
 40
1
 40
1
 10
27.057237
 20
22.514797
 30
0.0
 10
27.625237
 20
22.514797
 30
0.0
 10
28.082517
 20
22.057526
 30
0.0
 10
28.082517
 20
21.489516
 30
0.0
  0
LWPOLYLINE
  5
113
100
AcDbEntity
  8
Layer_1
 62
1
100
AcDbPolyline
 90
2
 70
0
 10
12.742793
 20
22.514797
 30
0.0
 10
27.057237
 20
22.514797
 30
0.0
  0
SPLINE
  5
114
100
AcDbEntity
  8
Layer_1
 62
1
100
AcDbSpline
 70
8
 71
3
 72
8
 73
4
 74
0
 40
0
 40
0
 40
0
 40
0
 40
1
 40
1
 40
1
 40
1
 10
28.082517
 20
11.175074
 30
0.0
 10
28.082517
 20
10.607074
 30
0.0
 10
27.625237
 20
10.149794
 30
0.0
 10
27.057237
 20
10.149794
 30
0.0
  0
LWPOLYLINE
  5
115
100
AcDbEntity
  8
Layer_1
 62
1
100
AcDbPolyline
 90
2
 70
0
 10
28.082517
 20
21.489516
 30
0.0
 10
28.082517
 20
11.175074
 30
0.0
  0
SPLINE
  5
116
100
AcDbEntity
  8
Layer_1
 62
1
100
AcDbSpline
 70
8
 71
3
 72
8
 73
4
 74
0
 40
0
 40
0
 40
0
 40
0
 40
1
 40
1
 40
1
 40
1
 10
12.742793
 20
10.149794
 30
0.0
 10
12.174783
 20
10.149794
 30
0.0
 10
11.717513
 20
10.607074
 30
0.0
 10
11.717513
 20
11.175074
 30
0.0
  0
LWPOLYLINE
  5
117
100
AcDbEntity
  8
Layer_1
 62
1
100
AcDbPolyline
 90
2
 70
0
 10
27.057237
 20
10.149794
 30
0.0
 10
12.742793
 20
10.149794
 30
0.0
  0
SPLINE
  5
118
100
AcDbEntity
  8
Layer_1
 62
1
100
AcDbSpline
 70
8
 71
3
 72
8
 73
4
 74
0
 40
0
 40
0
 40
0
 40
0
 40
1
 40
1
 40
1
 40
1
 10
11.717513
 20
21.489516
 30
0.0
 10
11.717513
 20
22.057526
 30
0.0
 10
12.174783
 20
22.514797
 30
0.0
 10
12.742793
 20
22.514797
 30
0.0
  0
LWPOLYLINE
  5
119
100
AcDbEntity
  8
Layer_1
 62
1
100
AcDbPolyline
 90
2
 70
0
 10
11.717513
 20
11.175074
 30
0.0
 10
11.717513
 20
21.489516
 30
0.0
  0
SPLINE
  5
11a
100
AcDbEntity
  8
Layer_1
 62
1
100
AcDbSpline
 70
8
 71
3
 72
8
 73
4
 74
0
 40
0
 40
0
 40
0
 40
0
 40
1
 40
1
 40
1
 40
1
 10
23.267726
 20
14.352505
 30
0.0
 10
23.267722
 20
12.492633
 30
0.0
 10
21.759997
 20
10.984912
 30
0.0
 10
19.900125
 20
10.984914
 30
0.0
  0
SPLINE
  5
11b
100
AcDbEntity
  8
Layer_1
 62
1
100
AcDbSpline
 70
8
 71
3
 72
8
 73
4
 74
0
 40
0
 40
0
 40
0
 40
0
 40
1
 40
1
 40
1
 40
1
 10
19.900125
 20
10.984914
 30
0.0
 10
18.040257
 20
10.984917
 30
0.0
 10
16.532537
 20
12.492637
 30
0.0
 10
16.532534
 20
14.352505
 30
0.0
  0
SPLINE
  5
11c
100
AcDbEntity
  8
Layer_1
 62
1
100
AcDbSpline
 70
8
 71
3
 72
8
 73
4
 74
0
 40
0
 40
0
 40
0
 40
0
 40
1
 40
1
 40
1
 40
1
 10
16.532534
 20
14.352505
 30
0.0
 10
16.532532
 20
16.212376
 30
0.0
 10
18.040253
 20
17.720102
 30
0.0
 10
19.900125
 20
17.720105
 30
0.0
  0
SPLINE
  5
11d
100
AcDbEntity
  8
Layer_1
 62
1
100
AcDbSpline
 70
8
 71
3
 72
8
 73
4
 74
0
 40
0
 40
0
 40
0
 40
0
 40
1
 40
1
 40
1
 40
1
 10
19.900125
 20
17.720105
 30
0.0
 10
20.793269
 20
17.720106
 30
0.0
 10
21.649832
 20
17.365307
 30
0.0
 10
22.281379
 20
16.733759
 30
0.0
  0
SPLINE
  5
11e
100
AcDbEntity
  8
Layer_1
 62
1
100
AcDbSpline
 70
8
 71
3
 72
8
 73
4
 74
0
 40
0
 40
0
 40
0
 40
0
 40
1
 40
1
 40
1
 40
1
 10
22.281379
 20
16.733759
 30
0.0
 10
22.912927
 20
16.102211
 30
0.0
 10
23.267727
 20
15.245648
 30
0.0
 10
23.267726
 20
14.352505
 30
0.0
  0
LWPOLYLINE
  5
11f
100
AcDbEntity
  8
Layer_1
 62
1
100
AcDbPolyline
 90
1
 70
1
 10
12.742793
 20
22.514797
 30
0.0
  0
SPLINE
  5
120
100
AcDbEntity
  8
Layer_1
 62
1
100
AcDbSpline
 70
8
 71
3
 72
8
 73
4
 74
0
 40
0
 40
0
 40
0
 40
0
 40
1
 40
1
 40
1
 40
1
 10
21.750125
 20
19.705166
 30
0.0
 10
21.750126
 20
19.214515
 30
0.0
 10
21.555215
 20
18.743960
 30
0.0
 10
21.208273
 20
18.397018
 30
0.0
  0
SPLINE
  5
121
100
AcDbEntity
  8
Layer_1
 62
1
100
AcDbSpline
 70
8
 71
3
 72
8
 73
4
 74
0
 40
0
 40
0
 40
0
 40
0
 40
1
 40
1
 40
1
 40
1
 10
21.208273
 20
18.397018
 30
0.0
 10
20.861331
 20
18.050075
 30
0.0
 10
20.390776
 20
17.855165
 30
0.0
 10
19.900125
 20
17.855165
 30
0.0
  0
SPLINE
  5
122
100
AcDbEntity
  8
Layer_1
 62
1
100
AcDbSpline
 70
8
 71
3
 72
8
 73
4
 74
0
 40
0
 40
0
 40
0
 40
0
 40
1
 40
1
 40
1
 40
1
 10
19.900125
 20
17.855165
 30
0.0
 10
19.409474
 20
17.855165
 30
0.0
 10
18.938919
 20
18.050075
 30
0.0
 10
18.591977
 20
18.397018
 30
0.0
  0
SPLINE
  5
123
100
AcDbEntity
  8
Layer_1
 62
1
100
AcDbSpline
 70
8
 71
3
 72
8
 73
4
 74
0
 40
0
 40
0
 40
0
 40
0
 40
1
 40
1
 40
1
 40
1
 10
18.591977
 20
18.397018
 30
0.0
 10
18.245035
 20
18.743960
 30
0.0
 10
18.050124
 20
19.214515
 30
0.0
 10
18.050124
 20
19.705166
 30
0.0
  0
SPLINE
  5
124
100
AcDbEntity
  8
Layer_1
 62
1
100
AcDbSpline
 70
8
 71
3
 72
8
 73
4
 74
0
 40
0
 40
0
 40
0
 40
0
 40
1
 40
1
 40
1
 40
1
 10
18.050124
 20
19.705166
 30
0.0
 10
18.050124
 20
20.195817
 30
0.0
 10
18.245035
 20
20.666372
 30
0.0
 10
18.591977
 20
21.013314
 30
0.0
  0
SPLINE
  5
125
100
AcDbEntity
  8
Layer_1
 62
1
100
AcDbSpline
 70
8
 71
3
 72
8
 73
4
 74
0
 40
0
 40
0
 40
0
 40
0
 40
1
 40
1
 40
1
 40
1
 10
18.591977
 20
21.013314
 30
0.0
 10
18.938919
 20
21.360256
 30
0.0
 10
19.409474
 20
21.555167
 30
0.0
 10
19.900125
 20
21.555166
 30
0.0
  0
SPLINE
  5
126
100
AcDbEntity
  8
Layer_1
 62
1
100
AcDbSpline
 70
8
 71
3
 72
8
 73
4
 74
0
 40
0
 40
0
 40
0
 40
0
 40
1
 40
1
 40
1
 40
1
 10
19.900125
 20
21.555166
 30
0.0
 10
20.390776
 20
21.555167
 30
0.0
 10
20.861331
 20
21.360256
 30
0.0
 10
21.208273
 20
21.013314
 30
0.0
  0
SPLINE
  5
127
100
AcDbEntity
  8
Layer_1
 62
1
100
AcDbSpline
 70
8
 71
3
 72
8
 73
4
 74
0
 40
0
 40
0
 40
0
 40
0
 40
1
 40
1
 40
1
 40
1
 10
21.208273
 20
21.013314
 30
0.0
 10
21.555215
 20
20.666372
 30
0.0
 10
21.750126
 20
20.195817
 30
0.0
 10
21.750125
 20
19.705166
 30
0.0
  0
LWPOLYLINE
  5
128
100
AcDbEntity
  8
Layer_1
 62
1
100
AcDbPolyline
 90
1
 70
1
 10
23.267726
 20
14.352505
 30
0.0
  0
LWPOLYLINE
  5
129
100
AcDbEntity
  8
Layer_1
 62
1
100
AcDbPolyline
 90
1
 70
1
 10
21.750125
 20
19.705166
 30
0.0
  0
SPLINE
  5
12a
100
AcDbEntity
  8
Layer_1
 62
1
100
AcDbSpline
 70
8
 71
3
 72
8
 73
4
 74
0
 40
0
 40
0
 40
0
 40
0
 40
1
 40
1
 40
1
 40
1
 10
26.262237
 20
21.485806
 30
0.0
 10
26.441557
 20
21.485806
 30
0.0
 10
26.585927
 20
21.341446
 30
0.0
 10
26.585927
 20
21.162126
 30
0.0
  0
LWPOLYLINE
  5
12b
100
AcDbEntity
  8
Layer_1
 62
1
100
AcDbPolyline
 90
2
 70
0
 10
13.538023
 20
21.485806
 30
0.0
 10
26.262237
 20
21.485806
 30
0.0
  0
SPLINE
  5
12c
100
AcDbEntity
  8
Layer_1
 62
1
100
AcDbSpline
 70
8
 71
3
 72
8
 73
4
 74
0
 40
0
 40
0
 40
0
 40
0
 40
1
 40
1
 40
1
 40
1
 10
26.585927
 20
17.910255
 30
0.0
 10
26.585927
 20
17.730935
 30
0.0
 10
26.441557
 20
17.586565
 30
0.0
 10
26.262237
 20
17.586565
 30
0.0
  0
LWPOLYLINE
  5
12d
100
AcDbEntity
  8
Layer_1
 62
1
100
AcDbPolyline
 90
2
 70
0
 10
26.585927
 20
21.162126
 30
0.0
 10
26.585927
 20
17.910255
 30
0.0
  0
SPLINE
  5
12e
100
AcDbEntity
  8
Layer_1
 62
1
100
AcDbSpline
 70
8
 71
3
 72
8
 73
4
 74
0
 40
0
 40
0
 40
0
 40
0
 40
1
 40
1
 40
1
 40
1
 10
13.538023
 20
17.586565
 30
0.0
 10
13.358703
 20
17.586565
 30
0.0
 10
13.214333
 20
17.730935
 30
0.0
 10
13.214333
 20
17.910255
 30
0.0
  0
LWPOLYLINE
  5
12f
100
AcDbEntity
  8
Layer_1
 62
1
100
AcDbPolyline
 90
2
 70
0
 10
26.262237
 20
17.586565
 30
0.0
 10
13.538023
 20
17.586565
 30
0.0
  0
SPLINE
  5
130
100
AcDbEntity
  8
Layer_1
 62
1
100
AcDbSpline
 70
8
 71
3
 72
8
 73
4
 74
0
 40
0
 40
0
 40
0
 40
0
 40
1
 40
1
 40
1
 40
1
 10
13.214333
 20
21.162126
 30
0.0
 10
13.214333
 20
21.341446
 30
0.0
 10
13.358703
 20
21.485806
 30
0.0
 10
13.538023
 20
21.485806
 30
0.0
  0
LWPOLYLINE
  5
131
100
AcDbEntity
  8
Layer_1
 62
1
100
AcDbPolyline
 90
2
 70
0
 10
13.214333
 20
17.910255
 30
0.0
 10
13.214333
 20
21.162126
 30
0.0
  0
LWPOLYLINE
  5
132
100
AcDbEntity
  8
Layer_1
 62
1
100
AcDbPolyline
 90
1
 70
1
 10
13.538023
 20
21.485806
 30
0.0
  0
SPLINE
  5
133
100
AcDbEntity
  8
Layer_1
 62
1
100
AcDbSpline
 70
8
 71
3
 72
8
 73
4
 74
0
 40
0
 40
0
 40
0
 40
0
 40
1
 40
1
 40
1
 40
1
 10
26.262237
 20
16.107025
 30
0.0
 10
26.441557
 20
16.107025
 30
0.0
 10
26.585927
 20
15.962655
 30
0.0
 10
26.585927
 20
15.783335
 30
0.0
  0
LWPOLYLINE
  5
134
100
AcDbEntity
  8
Layer_1
 62
1
100
AcDbPolyline
 90
2
 70
0
 10
13.538023
 20
16.107025
 30
0.0
 10
26.262237
 20
16.107025
 30
0.0
  0
SPLINE
  5
135
100
AcDbEntity
  8
Layer_1
 62
1
100
AcDbSpline
 70
8
 71
3
 72
8
 73
4
 74
0
 40
0
 40
0
 40
0
 40
0
 40
1
 40
1
 40
1
 40
1
 10
26.585927
 20
11.876664
 30
0.0
 10
26.585927
 20
11.697344
 30
0.0
 10
26.441557
 20
11.552984
 30
0.0
 10
26.262237
 20
11.552984
 30
0.0
  0
LWPOLYLINE
  5
136
100
AcDbEntity
  8
Layer_1
 62
1
100
AcDbPolyline
 90
2
 70
0
 10
26.585927
 20
15.783335
 30
0.0
 10
26.585927
 20
11.876664
 30
0.0
  0
SPLINE
  5
137
100
AcDbEntity
  8
Layer_1
 62
1
100
AcDbSpline
 70
8
 71
3
 72
8
 73
4
 74
0
 40
0
 40
0
 40
0
 40
0
 40
1
 40
1
 40
1
 40
1
 10
13.538023
 20
11.552984
 30
0.0
 10
13.358703
 20
11.552984
 30
0.0
 10
13.214333
 20
11.697344
 30
0.0
 10
13.214333
 20
11.876664
 30
0.0
  0
LWPOLYLINE
  5
138
100
AcDbEntity
  8
Layer_1
 62
1
100
AcDbPolyline
 90
2
 70
0
 10
26.262237
 20
11.552984
 30
0.0
 10
13.538023
 20
11.552984
 30
0.0
  0
SPLINE
  5
139
100
AcDbEntity
  8
Layer_1
 62
1
100
AcDbSpline
 70
8
 71
3
 72
8
 73
4
 74
0
 40
0
 40
0
 40
0
 40
0
 40
1
 40
1
 40
1
 40
1
 10
13.214333
 20
15.783335
 30
0.0
 10
13.214333
 20
15.962655
 30
0.0
 10
13.358703
 20
16.107025
 30
0.0
 10
13.538023
 20
16.107025
 30
0.0
  0
LWPOLYLINE
  5
13a
100
AcDbEntity
  8
Layer_1
 62
1
100
AcDbPolyline
 90
2
 70
0
 10
13.214333
 20
11.876664
 30
0.0
 10
13.214333
 20
15.783335
 30
0.0
  0
SPLINE
  5
13b
100
AcDbEntity
  8
Layer_1
 62
1
100
AcDbSpline
 70
8
 71
3
 72
8
 73
4
 74
0
 40
0
 40
0
 40
0
 40
0
 40
1
 40
1
 40
1
 40
1
 10
23.267726
 20
64.426247
 30
0.0
 10
23.267722
 20
62.566375
 30
0.0
 10
21.759997
 20
61.058654
 30
0.0
 10
19.900125
 20
61.058656
 30
0.0
  0
SPLINE
  5
13c
100
AcDbEntity
  8
Layer_1
 62
1
100
AcDbSpline
 70
8
 71
3
 72
8
 73
4
 74
0
 40
0
 40
0
 40
0
 40
0
 40
1
 40
1
 40
1
 40
1
 10
19.900125
 20
61.058656
 30
0.0
 10
18.040257
 20
61.058660
 30
0.0
 10
16.532537
 20
62.566379
 30
0.0
 10
16.532534
 20
64.426247
 30
0.0
  0
SPLINE
  5
13d
100
AcDbEntity
  8
Layer_1
 62
1
100
AcDbSpline
 70
8
 71
3
 72
8
 73
4
 74
0
 40
0
 40
0
 40
0
 40
0
 40
1
 40
1
 40
1
 40
1
 10
16.532534
 20
64.426247
 30
0.0
 10
16.532532
 20
66.286119
 30
0.0
 10
18.040253
 20
67.793845
 30
0.0
 10
19.900125
 20
67.793848
 30
0.0
  0
SPLINE
  5
13e
100
AcDbEntity
  8
Layer_1
 62
1
100
AcDbSpline
 70
8
 71
3
 72
8
 73
4
 74
0
 40
0
 40
0
 40
0
 40
0
 40
1
 40
1
 40
1
 40
1
 10
19.900125
 20
67.793848
 30
0.0
 10
20.793269
 20
67.793849
 30
0.0
 10
21.649832
 20
67.439049
 30
0.0
 10
22.281379
 20
66.807502
 30
0.0
  0
SPLINE
  5
13f
100
AcDbEntity
  8
Layer_1
 62
1
100
AcDbSpline
 70
8
 71
3
 72
8
 73
4
 74
0
 40
0
 40
0
 40
0
 40
0
 40
1
 40
1
 40
1
 40
1
 10
22.281379
 20
66.807502
 30
0.0
 10
22.912927
 20
66.175954
 30
0.0
 10
23.267727
 20
65.319391
 30
0.0
 10
23.267726
 20
64.426247
 30
0.0
  0
LWPOLYLINE
  5
140
100
AcDbEntity
  8
Layer_1
 62
1
100
AcDbPolyline
 90
1
 70
1
 10
13.538023
 20
16.107025
 30
0.0
  0
SPLINE
  5
141
100
AcDbEntity
  8
Layer_1
 62
1
100
AcDbSpline
 70
8
 71
3
 72
8
 73
4
 74
0
 40
0
 40
0
 40
0
 40
0
 40
1
 40
1
 40
1
 40
1
 10
21.750125
 20
69.825668
 30
0.0
 10
21.750126
 20
69.335018
 30
0.0
 10
21.555215
 20
68.864463
 30
0.0
 10
21.208273
 20
68.517520
 30
0.0
  0
SPLINE
  5
142
100
AcDbEntity
  8
Layer_1
 62
1
100
AcDbSpline
 70
8
 71
3
 72
8
 73
4
 74
0
 40
0
 40
0
 40
0
 40
0
 40
1
 40
1
 40
1
 40
1
 10
21.208273
 20
68.517520
 30
0.0
 10
20.861331
 20
68.170578
 30
0.0
 10
20.390776
 20
67.975668
 30
0.0
 10
19.900125
 20
67.975668
 30
0.0
  0
SPLINE
  5
143
100
AcDbEntity
  8
Layer_1
 62
1
100
AcDbSpline
 70
8
 71
3
 72
8
 73
4
 74
0
 40
0
 40
0
 40
0
 40
0
 40
1
 40
1
 40
1
 40
1
 10
19.900125
 20
67.975668
 30
0.0
 10
19.409474
 20
67.975668
 30
0.0
 10
18.938919
 20
68.170578
 30
0.0
 10
18.591977
 20
68.517520
 30
0.0
  0
SPLINE
  5
144
100
AcDbEntity
  8
Layer_1
 62
1
100
AcDbSpline
 70
8
 71
3
 72
8
 73
4
 74
0
 40
0
 40
0
 40
0
 40
0
 40
1
 40
1
 40
1
 40
1
 10
18.591977
 20
68.517520
 30
0.0
 10
18.245035
 20
68.864463
 30
0.0
 10
18.050124
 20
69.335018
 30
0.0
 10
18.050124
 20
69.825668
 30
0.0
  0
SPLINE
  5
145
100
AcDbEntity
  8
Layer_1
 62
1
100
AcDbSpline
 70
8
 71
3
 72
8
 73
4
 74
0
 40
0
 40
0
 40
0
 40
0
 40
1
 40
1
 40
1
 40
1
 10
18.050124
 20
69.825668
 30
0.0
 10
18.050124
 20
70.316319
 30
0.0
 10
18.245035
 20
70.786874
 30
0.0
 10
18.591977
 20
71.133816
 30
0.0
  0
SPLINE
  5
146
100
AcDbEntity
  8
Layer_1
 62
1
100
AcDbSpline
 70
8
 71
3
 72
8
 73
4
 74
0
 40
0
 40
0
 40
0
 40
0
 40
1
 40
1
 40
1
 40
1
 10
18.591977
 20
71.133816
 30
0.0
 10
18.938919
 20
71.480759
 30
0.0
 10
19.409474
 20
71.675669
 30
0.0
 10
19.900125
 20
71.675669
 30
0.0
  0
SPLINE
  5
147
100
AcDbEntity
  8
Layer_1
 62
1
100
AcDbSpline
 70
8
 71
3
 72
8
 73
4
 74
0
 40
0
 40
0
 40
0
 40
0
 40
1
 40
1
 40
1
 40
1
 10
19.900125
 20
71.675669
 30
0.0
 10
20.390776
 20
71.675669
 30
0.0
 10
20.861331
 20
71.480759
 30
0.0
 10
21.208273
 20
71.133816
 30
0.0
  0
SPLINE
  5
148
100
AcDbEntity
  8
Layer_1
 62
1
100
AcDbSpline
 70
8
 71
3
 72
8
 73
4
 74
0
 40
0
 40
0
 40
0
 40
0
 40
1
 40
1
 40
1
 40
1
 10
21.208273
 20
71.133816
 30
0.0
 10
21.555215
 20
70.786874
 30
0.0
 10
21.750126
 20
70.316319
 30
0.0
 10
21.750125
 20
69.825668
 30
0.0
  0
LWPOLYLINE
  5
149
100
AcDbEntity
  8
Layer_1
 62
1
100
AcDbPolyline
 90
1
 70
1
 10
23.267726
 20
64.426247
 30
0.0
  0
SPLINE
  5
14a
100
AcDbEntity
  8
Layer_1
 62
1
100
AcDbSpline
 70
8
 71
3
 72
8
 73
4
 74
0
 40
0
 40
0
 40
0
 40
0
 40
1
 40
1
 40
1
 40
1
 10
18.050034
 20
59.026836
 30
0.0
 10
18.050034
 20
59.517486
 30
0.0
 10
18.244945
 20
59.988041
 30
0.0
 10
18.591887
 20
60.334984
 30
0.0
  0
SPLINE
  5
14b
100
AcDbEntity
  8
Layer_1
 62
1
100
AcDbSpline
 70
8
 71
3
 72
8
 73
4
 74
0
 40
0
 40
0
 40
0
 40
0
 40
1
 40
1
 40
1
 40
1
 10
18.591887
 20
60.334984
 30
0.0
 10
18.938829
 20
60.681926
 30
0.0
 10
19.409384
 20
60.876836
 30
0.0
 10
19.900035
 20
60.876836
 30
0.0
  0
SPLINE
  5
14c
100
AcDbEntity
  8
Layer_1
 62
1
100
AcDbSpline
 70
8
 71
3
 72
8
 73
4
 74
0
 40
0
 40
0
 40
0
 40
0
 40
1
 40
1
 40
1
 40
1
 10
19.900035
 20
60.876836
 30
0.0
 10
20.390686
 20
60.876836
 30
0.0
 10
20.861241
 20
60.681926
 30
0.0
 10
21.208183
 20
60.334984
 30
0.0
  0
SPLINE
  5
14d
100
AcDbEntity
  8
Layer_1
 62
1
100
AcDbSpline
 70
8
 71
3
 72
8
 73
4
 74
0
 40
0
 40
0
 40
0
 40
0
 40
1
 40
1
 40
1
 40
1
 10
21.208183
 20
60.334984
 30
0.0
 10
21.555125
 20
59.988041
 30
0.0
 10
21.750036
 20
59.517486
 30
0.0
 10
21.750035
 20
59.026836
 30
0.0
  0
SPLINE
  5
14e
100
AcDbEntity
  8
Layer_1
 62
1
100
AcDbSpline
 70
8
 71
3
 72
8
 73
4
 74
0
 40
0
 40
0
 40
0
 40
0
 40
1
 40
1
 40
1
 40
1
 10
21.750035
 20
59.026836
 30
0.0
 10
21.750036
 20
58.536185
 30
0.0
 10
21.555125
 20
58.065630
 30
0.0
 10
21.208183
 20
57.718688
 30
0.0
  0
SPLINE
  5
14f
100
AcDbEntity
  8
Layer_1
 62
1
100
AcDbSpline
 70
8
 71
3
 72
8
 73
4
 74
0
 40
0
 40
0
 40
0
 40
0
 40
1
 40
1
 40
1
 40
1
 10
21.208183
 20
57.718688
 30
0.0
 10
20.861241
 20
57.371745
 30
0.0
 10
20.390686
 20
57.176835
 30
0.0
 10
19.900035
 20
57.176835
 30
0.0
  0
SPLINE
  5
150
100
AcDbEntity
  8
Layer_1
 62
1
100
AcDbSpline
 70
8
 71
3
 72
8
 73
4
 74
0
 40
0
 40
0
 40
0
 40
0
 40
1
 40
1
 40
1
 40
1
 10
19.900035
 20
57.176835
 30
0.0
 10
19.409384
 20
57.176835
 30
0.0
 10
18.938829
 20
57.371745
 30
0.0
 10
18.591887
 20
57.718688
 30
0.0
  0
SPLINE
  5
151
100
AcDbEntity
  8
Layer_1
 62
1
100
AcDbSpline
 70
8
 71
3
 72
8
 73
4
 74
0
 40
0
 40
0
 40
0
 40
0
 40
1
 40
1
 40
1
 40
1
 10
18.591887
 20
57.718688
 30
0.0
 10
18.244945
 20
58.065630
 30
0.0
 10
18.050034
 20
58.536185
 30
0.0
 10
18.050034
 20
59.026836
 30
0.0
  0
LWPOLYLINE
  5
152
100
AcDbEntity
  8
Layer_1
 62
1
100
AcDbPolyline
 90
1
 70
1
 10
21.750125
 20
69.825668
 30
0.0
  0
LWPOLYLINE
  5
153
100
AcDbEntity
  8
Layer_1
 62
1
100
AcDbPolyline
 90
1
 70
1
 10
18.050034
 20
59.026836
 30
0.0
  0
ENDSEC
  0
SECTION
  2
OBJECTS
  0
DICTIONARY
  5
C
330
0
100
AcDbDictionary
  3
ACAD_GROUP
350
D
  3
ACAD_MLINESTYLE
350
17
  0
DICTIONARY
  5
D
330
C
100
AcDbDictionary
  0
DICTIONARY
  5
1A
330
C
100
AcDbDictionary
  0
DICTIONARY
  5
17
330
C
100
AcDbDictionary
  3
STANDARD
350
18
  0
DICTIONARY
  5
19
330
C
100
AcDbDictionary
  0
ENDSEC
  0
EOF
