<?xml version="1.0" encoding="UTF-8" standalone="no"?>
<!-- Created with Inkscape (http://www.inkscape.org/) -->

<svg
   width="210mm"
   height="297mm"
   viewBox="0 0 210 297"
   version="1.1"
   id="svg5"
   inkscape:version="1.1.1 (3bf5ae0d25, 2021-09-20)"
   sodipodi:docname="3.svg"
   xmlns:inkscape="http://www.inkscape.org/namespaces/inkscape"
   xmlns:sodipodi="http://sodipodi.sourceforge.net/DTD/sodipodi-0.dtd"
   xmlns="http://www.w3.org/2000/svg"
   xmlns:svg="http://www.w3.org/2000/svg">
  <sodipodi:namedview
     id="namedview7"
     pagecolor="#505050"
     bordercolor="#ffffff"
     borderopacity="1"
     inkscape:pageshadow="0"
     inkscape:pageopacity="0"
     inkscape:pagecheckerboard="1"
     inkscape:document-units="mm"
     showgrid="false"
     inkscape:zoom="4.5774641"
     inkscape:cx="295.68774"
     inkscape:cy="86.838475"
     inkscape:window-width="3840"
     inkscape:window-height="2081"
     inkscape:window-x="-9"
     inkscape:window-y="-9"
     inkscape:window-maximized="1"
     inkscape:current-layer="layer1" />
  <defs
     id="defs2">
    <inkscape:path-effect
       effect="fillet_chamfer"
       id="path-effect5611"
       is_visible="true"
       lpeversion="1"
       satellites_param="F,0,0,1,0,0,0,1 @ F,0,0,1,0,0,0,1 @ F,0,0,1,0,0,0,1 @ F,0,0,1,0,0,0,1 @ F,0,0,1,0,0,0,1 @ F,0,0,1,0,0,0,1 @ F,0,0,1,0,0,0,1 @ F,0,0,1,0,0,0,1 @ F,0,0,1,0,0,0,1 @ F,0,0,1,0,0,0,1 @ F,0,0,1,0,0,0,1 @ F,0,0,1,0,0,0,1 @ F,0,0,1,0,0,0,1 @ F,0,0,1,0,0,0,1 @ F,0,0,1,0,0,0,1 @ F,0,0,1,0,0,0,1 @ F,0,0,1,0,0,0,1 @ F,0,0,1,0,0,0,1 @ F,0,0,1,0,0,0,1 @ F,0,0,1,0,0,0,1 @ F,0,0,1,0,0,0,1 @ F,0,0,1,0,0,0,1 @ F,0,0,1,0,0,0,1 @ F,0,0,1,0,0,0,1 @ F,0,0,1,0,0,0,1 @ F,0,0,1,0,0,0,1 @ F,0,0,1,0,0,0,1 @ F,0,0,1,0,0,0,1 @ F,0,0,1,0,0,0,1 @ F,0,0,1,0,0,0,1 @ F,0,0,1,0,0,0,1 @ F,0,0,1,0,0,0,1 @ F,0,0,1,0,0,0,1 @ F,0,0,1,0,0,0,1 @ F,0,0,1,0,0,0,1 @ F,0,0,1,0,0,0,1 @ F,0,0,1,0,0,0,1 @ F,0,0,1,0,0,0,1 @ F,0,0,1,0,0,0,1 @ F,0,0,1,0,0,0,1 @ F,0,0,1,0,0,0,1 @ F,0,0,1,0,0,0,1 @ F,0,0,1,0,0,0,1 @ F,0,0,1,0,0,0,1 @ F,0,0,1,0,0,0,1 @ F,0,0,1,0,0,0,1 @ F,0,0,1,0,0,0,1 @ F,0,0,1,0,0,0,1 @ F,0,0,1,0,0,0,1 @ F,0,0,1,0,0,0,1 @ F,0,0,1,0,0,0,1 @ F,0,0,1,0,0,0,1 @ F,0,0,1,0,0,0,1 @ F,0,0,1,0,0,0,1 @ F,0,0,1,0,0,0,1 @ F,0,0,1,0,0,0,1 @ F,0,0,1,0,0,0,1 @ F,0,0,1,0,0,0,1 @ F,0,0,1,0,0,0,1 @ F,0,0,1,0,0,0,1 @ F,0,0,1,0,0,0,1 @ F,0,0,1,0,0,0,1 @ F,0,0,1,0,0,0,1 @ F,0,0,1,0,0,0,1 @ F,0,0,1,0,5.7656251,0,1 @ F,0,0,1,0,5.7812499,0,1 @ F,0,0,1,0,5.8125001,0,1 @ F,0,0,1,0,0,0,1 @ F,0,0,1,0,0,0,1 @ F,0,0,1,0,0,0,1 @ F,0,0,1,0,0,0,1 @ F,0,0,1,0,0,0,1 @ F,0,0,1,0,0,0,1 @ F,0,0,1,0,0,0,1 @ F,0,0,1,0,0,0,1 @ F,0,0,1,0,0,0,1 @ F,0,0,1,0,0,0,1 @ F,0,0,1,0,0,0,1 @ F,0,0,1,0,0,0,1 @ F,0,0,1,0,0,0,1 @ F,0,0,1,0,0,0,1 @ F,0,0,1,0,0,0,1 @ F,0,0,1,0,0,0,1 @ F,0,0,1,0,0,0,1 @ F,0,0,1,0,0,0,1 @ F,0,0,1,0,0,0,1 @ F,0,0,1,0,0,0,1 @ F,0,0,1,0,0,0,1 @ F,0,0,1,0,5.8437501,0,1 @ F,0,0,1,0,5.7812501,0,1"
       unit="px"
       method="auto"
       mode="F"
       radius="0"
       chamfer_steps="1"
       flexible="false"
       use_knot_distance="true"
       apply_no_radius="true"
       apply_with_radius="true"
       only_selected="false"
       hide_knots="false" />
    <inkscape:path-effect
       effect="bspline"
       id="path-effect66296"
       is_visible="true"
       lpeversion="1"
       weight="33.333333"
       steps="2"
       helper_size="0"
       apply_no_weight="true"
       apply_with_weight="true"
       only_selected="false" />
    <inkscape:path-effect
       effect="bspline"
       id="path-effect66155"
       is_visible="true"
       lpeversion="1"
       weight="33.333333"
       steps="2"
       helper_size="0"
       apply_no_weight="true"
       apply_with_weight="true"
       only_selected="false" />
    <inkscape:path-effect
       effect="fillet_chamfer"
       id="path-effect7232"
       is_visible="true"
       lpeversion="1"
       satellites_param="F,0,0,1,0,0,0,1 @ F,0,0,1,0,0,0,1 @ F,0,0,1,0,0,0,1 @ F,0,0,1,0,0,0,1 @ F,0,0,1,0,0,0,1 @ F,0,0,1,0,0,0,1 @ F,0,0,1,0,0,0,1 @ F,0,0,1,0,0,0,1 @ F,0,0,1,0,0,0,1 @ F,0,0,1,0,0,0,1 @ F,0,0,1,0,0,0,1 @ F,0,0,1,0,0,0,1 @ F,0,0,1,0,0,0,1 @ F,0,0,1,0,0,0,1 @ F,0,0,1,0,0,0,1 @ F,0,0,1,0,0,0,1 @ F,0,0,1,0,0,0,1 @ F,0,0,1,0,0,0,1 @ F,0,0,1,0,0,0,1 @ F,0,0,1,0,0,0,1 @ F,0,0,1,0,0,0,1 @ F,0,0,1,0,0,0,1 @ F,0,0,1,0,0,0,1 @ F,0,0,1,0,0,0,1 @ F,0,0,1,0,0,0,1 @ F,0,0,1,0,0,0,1 @ F,0,0,1,0,5.8125001,0,1 @ F,0,0,1,0,5.8437501,0,1 @ F,0,0,1,0,0,0,1 @ F,0,0,1,0,0,0,1 @ F,0,0,1,0,0,0,1 @ F,0,0,1,0,0,0,1 @ F,0,0,1,0,0,0,1 @ F,0,0,1,0,0,0,1 @ F,0,0,1,0,0,0,1 @ F,0,0,1,0,5.8281251,0,1 @ F,0,0,1,0,5.8750001,0,1 @ F,0,0,1,0,0,0,1 @ F,0,0,1,0,0,0,1 @ F,0,0,1,0,0,0,1 @ F,0,0,1,0,0,0,1 @ F,0,0,1,0,0,0,1 @ F,0,0,1,0,0,0,1 @ F,0,0,1,0,0,0,1 @ F,0,0,1,0,5.7968751,0,1 @ F,0,0,1,0,5.833631,0,1 @ F,0,0,1,0,0,0,1"
       unit="px"
       method="auto"
       mode="F"
       radius="0"
       chamfer_steps="1"
       flexible="false"
       use_knot_distance="true"
       apply_no_radius="true"
       apply_with_radius="true"
       only_selected="false"
       hide_knots="false" />
    <inkscape:path-effect
       effect="bspline"
       id="path-effect7026"
       is_visible="true"
       lpeversion="1"
       weight="33.333333"
       steps="2"
       helper_size="0"
       apply_no_weight="true"
       apply_with_weight="true"
       only_selected="false" />
    <inkscape:path-effect
       effect="bspline"
       id="path-effect6989"
       is_visible="true"
       lpeversion="1"
       weight="33.333333"
       steps="2"
       helper_size="0"
       apply_no_weight="true"
       apply_with_weight="true"
       only_selected="false" />
    <inkscape:path-effect
       effect="bspline"
       id="path-effect4601"
       is_visible="true"
       lpeversion="1"
       weight="33.333333"
       steps="2"
       helper_size="0"
       apply_no_weight="true"
       apply_with_weight="true"
       only_selected="false" />
    <inkscape:path-effect
       effect="fillet_chamfer"
       id="path-effect4564"
       is_visible="true"
       lpeversion="1"
       satellites_param="F,0,0,1,0,0,0,1 @ F,0,0,1,0,0,0,1 @ F,0,0,1,0,0,0,1 @ F,0,0,1,0,0,0,1 @ F,0,0,1,0,0,0,1 @ F,0,0,1,0,0,0,1 @ F,0,0,1,0,0,0,1 @ F,0,0,1,0,0,0,1 @ F,0,0,1,0,0,0,1 @ F,0,0,1,0,0,0,1 @ F,0,0,1,0,0,0,1 @ F,0,0,1,0,0,0,1 @ F,0,0,1,0,0,0,1 @ F,0,0,1,0,5.7673398,0,1 @ F,0,0,1,0,0,0,1 @ F,0,0,1,0,0,0,1 @ F,0,0,1,0,0,0,1 @ F,0,0,1,0,0,0,1 @ F,0,0,1,0,0,0,1 @ F,0,0,1,0,0,0,1 @ F,0,0,1,0,0,0,1 @ F,0,0,1,0,5.8359376,0,1 @ F,0,0,1,0,5.7673398,0,1 @ F,0,0,1,0,0,0,1 @ F,0,0,1,0,0,0,1 @ F,0,0,1,0,0,0,1"
       unit="px"
       method="auto"
       mode="F"
       radius="0"
       chamfer_steps="1"
       flexible="false"
       use_knot_distance="true"
       apply_no_radius="true"
       apply_with_radius="true"
       only_selected="false"
       hide_knots="false" />
    <inkscape:path-effect
       effect="bspline"
       id="path-effect4449"
       is_visible="true"
       lpeversion="1"
       weight="33.333333"
       steps="2"
       helper_size="0"
       apply_no_weight="true"
       apply_with_weight="true"
       only_selected="false" />
    <inkscape:path-effect
       effect="fillet_chamfer"
       id="path-effect3048"
       is_visible="true"
       lpeversion="1"
       satellites_param="F,0,0,1,0,5.7968751,0,1 @ F,0,0,1,0,5.921875,0,1 @ F,0,0,1,0,0,0,1 @ F,0,0,1,0,0,0,1 @ F,0,0,1,0,0,0,1 @ F,0,0,1,0,0,0,1 @ F,0,0,1,0,0,0,1 @ F,0,0,1,0,0,0,1 @ F,0,0,1,0,0,0,1 @ F,0,0,1,0,5.8446796,0,1 @ F,0,0,1,0,0,0,1 @ F,0,0,1,0,0,0,1 @ F,0,0,1,0,0,0,1 @ F,0,1,1,0,5.8446796,0,1"
       unit="mm"
       method="auto"
       mode="F"
       radius="0"
       chamfer_steps="1"
       flexible="false"
       use_knot_distance="true"
       apply_no_radius="true"
       apply_with_radius="true"
       only_selected="false"
       hide_knots="false" />
    <inkscape:path-effect
       effect="fillet_chamfer"
       id="path-effect3008"
       is_visible="true"
       lpeversion="1"
       satellites_param="F,0,0,1,0,0,0,1 @ F,0,0,1,0,0,0,1 @ F,0,0,1,0,0,0,1 @ F,0,0,1,0,0,0,1 @ F,0,0,1,0,0,0,1 @ F,0,0,1,0,0,0,1 @ F,0,0,1,0,0,0,1 @ F,0,0,1,0,0,0,1"
       unit="px"
       method="auto"
       mode="F"
       radius="0"
       chamfer_steps="1"
       flexible="false"
       use_knot_distance="true"
       apply_no_radius="true"
       apply_with_radius="true"
       only_selected="false"
       hide_knots="false" />
  </defs>
  <g
     inkscape:label="Layer 1"
     inkscape:groupmode="layer"
     id="layer1">
    <rect
       style="fill:none;stroke:#ff0000;stroke-width:0.0999995;stroke-miterlimit:4;stroke-dasharray:none"
       id="rect890"
       width="145.95"
       height="28.475"
       x="0.0499998"
       y="0.049999997"
       ry="0.69999999" />
    <path
       id="path3109"
       style="fill:none;stroke:#00ffff;stroke-width:0.37795;stroke-miterlimit:4;stroke-dasharray:none"
       d="m 9.0097656,3.2128906 c -0.4001907,0 -0.7906061,0.039968 -1.1679687,0.1171875 C 7.4644343,3.4072977 7.1006705,3.5212998 6.7539062,3.6679688 6.407142,3.8146377 6.077927,3.9947769 5.7695312,4.203125 5.4611355,4.4114731 5.1724133,4.6478992 4.9101562,4.9101562 4.6478992,5.1724133 4.4114731,5.4611355 4.203125,5.7695312 3.9947769,6.077927 3.8146377,6.407142 3.6679688,6.7539062 3.5212998,7.1006705 3.4072977,7.4644343 3.3300781,7.8417969 3.2528586,8.2191595 3.2128906,8.6095749 3.2128906,9.0097656 V 23.886719 c 0,0.40882 0.042209,0.807859 0.1210938,1.193359 0.078885,0.3855 0.1939184,0.757087 0.34375,1.111328 0.1498316,0.354242 0.3340342,0.690814 0.546875,1.00586 0.2128407,0.315045 0.4547441,0.609041 0.7226562,0.876953 0.2679122,0.267912 0.5619074,0.509815 0.8769532,0.722656 0.3150457,0.212841 0.6516177,0.397043 1.0058593,0.546875 0.3542417,0.149832 0.7258284,0.264865 1.1113281,0.34375 0.3854998,0.07888 0.7845393,0.121094 1.1933594,0.121094 H 17.8125 v 0.0078 c 0.06249,-0.0029 0.12499,-0.0055 0.1875,-0.0078 0.821928,1.6e-5 1.635069,0.04173 2.435547,0.123047 0.800478,0.08131 1.588244,0.202711 2.363281,0.361328 0.775037,0.158616 1.535643,0.354006 2.28125,0.585937 0.745607,0.231931 1.475313,0.499526 2.1875,0.800782 0.712187,0.301255 1.407254,0.637315 2.082031,1.003906 0.674778,0.36659 1.329513,0.763471 1.962891,1.191406 0.633378,0.427935 1.245995,0.885804 1.833984,1.371094 0.587989,0.48529 1.152796,0.998455 1.691407,1.537109 0.53861,0.538655 1.049914,1.103378 1.535156,1.691406 0.485242,0.588029 0.94321,1.198618 1.371094,1.832032 0.427883,0.633413 0.826824,1.290036 1.193359,1.964843 0.366535,0.674808 0.700756,1.367867 1.001953,2.080078 0.301198,0.712212 0.568911,1.443827 0.800781,2.189454 0.23187,0.745626 0.427385,1.506199 0.585938,2.28125 0.158553,0.77505 0.280082,1.562796 0.361328,2.363281 0.08125,0.800484 0.123098,1.613618 0.123047,2.435547 -1.7e-5,0.821881 -0.04174,1.63316 -0.123047,2.433594 -0.0813,0.800433 -0.202729,1.590236 -0.361328,2.365234 -0.158599,0.774997 -0.354031,1.535678 -0.585938,2.28125 -0.231906,0.745572 -0.499556,1.475343 -0.800781,2.1875 -0.301225,0.712157 -0.635399,1.407278 -1.001953,2.082031 -0.366554,0.674753 -0.765466,1.329531 -1.193359,1.962891 -0.427894,0.63336 -0.88585,1.246007 -1.371094,1.833984 -0.485244,0.587977 -0.998504,1.150848 -1.537109,1.689453 -0.538606,0.538606 -1.101476,1.051866 -1.689454,1.53711 -0.587977,0.485244 -1.200624,0.9432 -1.833984,1.371093 -0.63336,0.427894 -1.288137,0.826806 -1.962891,1.19336 -0.674753,0.366554 -1.369874,0.700728 -2.082031,1.001953 -0.712157,0.301225 -1.441928,0.568874 -2.1875,0.800781 -0.745572,0.231907 -1.506252,0.427338 -2.28125,0.585938 -0.774997,0.158599 -1.5648,0.280025 -2.365234,0.361328 -0.800434,0.0813 -1.611713,0.12303 -2.433594,0.123047 -0.06251,-0.0024 -0.125011,-0.005 -0.1875,-0.0078 v 0.0078 H 9.0566406 c -0.4034001,6.4e-5 -0.7973479,0.04126 -1.1777344,0.11914 C 7.4985198,77.628666 7.1307933,77.74275 6.78125,77.890625 6.4317067,78.0385 6.099933,78.219651 5.7890625,78.429688 5.478192,78.639724 5.1881964,78.87821 4.9238281,79.142578 4.6594598,79.406946 4.420974,79.696942 4.2109375,80.007812 4.000901,80.318683 3.8197503,80.650457 3.671875,81 3.5239997,81.349543 3.4099157,81.71727 3.3320312,82.097656 3.2541468,82.478043 3.2129548,82.87199 3.2128906,83.275391 l 0,15.746094 a 5.7656251,5.7656251 45 0 0 5.7656251,5.765625 l 534.0273443,0 a 5.7812499,5.7812499 135 0 0 5.78125,-5.78125 V 83.244141 a 5.8125001,5.8125001 45 0 0 -5.8125,-5.8125 h -8.2207 c -0.0524,0 -0.10231,-0.01025 -0.15039,-0.02344 -0.20172,0.01038 -0.40356,0.01819 -0.60547,0.02344 -1.55941,1.11e-4 -3.11505,-0.152968 -4.64453,-0.457032 -1.52973,-0.304434 -3.02586,-0.758438 -4.4668,-1.355468 -1.44119,-0.597084 -2.82021,-1.334351 -4.11719,-2.201172 -1.29653,-0.866471 -2.50481,-1.858213 -3.60742,-2.960938 -1.10273,-1.102615 -2.09447,-2.310891 -2.96094,-3.607422 -0.86682,-1.296977 -1.60409,-2.676 -2.20117,-4.117187 -0.59703,-1.440944 -1.05104,-2.937064 -1.35547,-4.466797 -0.30406,-1.529476 -0.45714,-3.085123 -0.45703,-4.644531 -1.1e-4,-1.559408 0.15297,-3.115055 0.45703,-4.644532 0.30431,-1.530398 0.75832,-3.027177 1.35547,-4.46875 0.59658,-1.440436 1.33319,-2.818797 2.19922,-4.115234 0.86637,-1.29721 1.85811,-2.506144 2.96094,-3.609375 1.10323,-1.102825 2.31216,-2.09457 3.60937,-2.960937 1.29698,-0.866821 2.676,-1.604088 4.11719,-2.201172 1.44094,-0.597031 2.93707,-1.051035 4.4668,-1.355469 1.52948,-0.304064 3.08512,-0.457142 4.64453,-0.457031 0.22008,2.16e-4 0.44016,0.0035 0.66015,0.0098 0.0311,-0.0052 0.0631,-0.0098 0.0957,-0.0098 h 8.18945 a 5.8437501,5.8437501 135 0 0 5.84375,-5.84375 V 8.9941407 a 5.7812501,5.7812501 45 0 0 -5.78125,-5.7812501 z"
       inkscape:path-effect="#path-effect5611"
       inkscape:original-d="m 9.0097656,3.2128906 c -0.4001907,0 -0.7906061,0.039968 -1.1679687,0.1171875 C 7.4644343,3.4072977 7.1006705,3.5212998 6.7539062,3.6679688 6.407142,3.8146377 6.077927,3.9947769 5.7695312,4.203125 5.4611355,4.4114731 5.1724133,4.6478992 4.9101562,4.9101562 4.6478992,5.1724133 4.4114731,5.4611355 4.203125,5.7695312 3.9947769,6.077927 3.8146377,6.407142 3.6679688,6.7539062 3.5212998,7.1006705 3.4072977,7.4644343 3.3300781,7.8417969 3.2528586,8.2191595 3.2128906,8.6095749 3.2128906,9.0097656 V 23.886719 c 0,0.40882 0.042209,0.807859 0.1210938,1.193359 0.078885,0.3855 0.1939184,0.757087 0.34375,1.111328 0.1498316,0.354242 0.3340342,0.690814 0.546875,1.00586 0.2128407,0.315045 0.4547441,0.609041 0.7226562,0.876953 0.2679122,0.267912 0.5619074,0.509815 0.8769532,0.722656 0.3150457,0.212841 0.6516177,0.397043 1.0058593,0.546875 0.3542417,0.149832 0.7258284,0.264865 1.1113281,0.34375 0.3854998,0.07888 0.7845393,0.121094 1.1933594,0.121094 H 17.8125 v 0.0078 c 0.06249,-0.0029 0.12499,-0.0055 0.1875,-0.0078 0.821928,1.6e-5 1.635069,0.04173 2.435547,0.123047 0.800478,0.08131 1.588244,0.202711 2.363281,0.361328 0.775037,0.158616 1.535643,0.354006 2.28125,0.585937 0.745607,0.231931 1.475313,0.499526 2.1875,0.800782 0.712187,0.301255 1.407254,0.637315 2.082031,1.003906 0.674778,0.36659 1.329513,0.763471 1.962891,1.191406 0.633378,0.427935 1.245995,0.885804 1.833984,1.371094 0.587989,0.48529 1.152796,0.998455 1.691407,1.537109 0.53861,0.538655 1.049914,1.103378 1.535156,1.691406 0.485242,0.588029 0.94321,1.198618 1.371094,1.832032 0.427883,0.633413 0.826824,1.290036 1.193359,1.964843 0.366535,0.674808 0.700756,1.367867 1.001953,2.080078 0.301198,0.712212 0.568911,1.443827 0.800781,2.189454 0.23187,0.745626 0.427385,1.506199 0.585938,2.28125 0.158553,0.77505 0.280082,1.562796 0.361328,2.363281 0.08125,0.800484 0.123098,1.613618 0.123047,2.435547 -1.7e-5,0.821881 -0.04174,1.63316 -0.123047,2.433594 -0.0813,0.800433 -0.202729,1.590236 -0.361328,2.365234 -0.158599,0.774997 -0.354031,1.535678 -0.585938,2.28125 -0.231906,0.745572 -0.499556,1.475343 -0.800781,2.1875 -0.301225,0.712157 -0.635399,1.407278 -1.001953,2.082031 -0.366554,0.674753 -0.765466,1.329531 -1.193359,1.962891 -0.427894,0.63336 -0.88585,1.246007 -1.371094,1.833984 -0.485244,0.587977 -0.998504,1.150848 -1.537109,1.689453 -0.538606,0.538606 -1.101476,1.051866 -1.689454,1.53711 -0.587977,0.485244 -1.200624,0.9432 -1.833984,1.371093 -0.63336,0.427894 -1.288137,0.826806 -1.962891,1.19336 -0.674753,0.366554 -1.369874,0.700728 -2.082031,1.001953 -0.712157,0.301225 -1.441928,0.568874 -2.1875,0.800781 -0.745572,0.231907 -1.506252,0.427338 -2.28125,0.585938 -0.774997,0.158599 -1.5648,0.280025 -2.365234,0.361328 -0.800434,0.0813 -1.611713,0.12303 -2.433594,0.123047 -0.06251,-0.0024 -0.125011,-0.005 -0.1875,-0.0078 v 0.0078 H 9.0566406 c -0.4034001,6.4e-5 -0.7973479,0.04126 -1.1777344,0.11914 C 7.4985198,77.628666 7.1307933,77.74275 6.78125,77.890625 6.4317067,78.0385 6.099933,78.219651 5.7890625,78.429688 5.478192,78.639724 5.1881964,78.87821 4.9238281,79.142578 4.6594598,79.406946 4.420974,79.696942 4.2109375,80.007812 4.000901,80.318683 3.8197503,80.650457 3.671875,81 3.5239997,81.349543 3.4099157,81.71727 3.3320312,82.097656 3.2541468,82.478043 3.2129548,82.87199 3.2128906,83.275391 V 104.78711 H 548.78711 V 77.431641 h -14.0332 c -0.0524,0 -0.10231,-0.01025 -0.15039,-0.02344 a 23.811024,23.811024 0 0 1 -0.60547,0.02344 23.811024,23.811024 0 0 1 -4.64453,-0.457032 23.811024,23.811024 0 0 1 -4.4668,-1.355468 23.811024,23.811024 0 0 1 -4.11719,-2.201172 23.811024,23.811024 0 0 1 -3.60742,-2.960938 23.811024,23.811024 0 0 1 -2.96094,-3.607422 A 23.811024,23.811024 0 0 1 512,62.732422 a 23.811024,23.811024 0 0 1 -1.35547,-4.466797 23.811024,23.811024 0 0 1 -0.45703,-4.644531 23.811024,23.811024 0 0 1 0.45703,-4.644532 23.811024,23.811024 0 0 1 1.35547,-4.46875 23.811024,23.811024 0 0 1 2.19922,-4.115234 23.811024,23.811024 0 0 1 2.96094,-3.609375 23.811024,23.811024 0 0 1 3.60937,-2.960937 23.811024,23.811024 0 0 1 4.11719,-2.201172 23.811024,23.811024 0 0 1 4.4668,-1.355469 23.811024,23.811024 0 0 1 4.64453,-0.457031 23.811024,23.811024 0 0 1 0.66015,0.0098 c 0.0311,-0.0052 0.0631,-0.0098 0.0957,-0.0098 h 14.0332 V 3.2128906 Z"
       transform="scale(0.26458333)" />
    <circle
       style="fill:none;stroke:#00ff00;stroke-width:0.0999997;stroke-miterlimit:4;stroke-dasharray:none"
       id="path1222"
       cx="4.7625003"
       cy="4.7624998"
       r="4.7125001" />
    <circle
       style="fill:none;stroke:#00ff00;stroke-width:0.1;stroke-miterlimit:4;stroke-dasharray:none"
       id="path1222-0"
       cx="4.7625003"
       cy="14.2875"
       r="4.7125001" />
    <circle
       style="fill:none;stroke:#00ff00;stroke-width:0.1;stroke-miterlimit:4;stroke-dasharray:none"
       id="path1222-0-2"
       cx="4.7625003"
       cy="23.8125"
       r="4.7125001" />
    <circle
       style="fill:none;stroke:#00ff00;stroke-width:0.0999997;stroke-miterlimit:4;stroke-dasharray:none"
       id="path1222-1"
       cx="141.28751"
       cy="4.7624998"
       r="4.7125001" />
    <circle
       style="fill:none;stroke:#00ff00;stroke-width:0.1;stroke-miterlimit:4;stroke-dasharray:none"
       id="path1222-0-5"
       cx="141.28751"
       cy="14.2875"
       r="4.7125001" />
    <circle
       style="fill:none;stroke:#00ff00;stroke-width:0.1;stroke-miterlimit:4;stroke-dasharray:none"
       id="path1222-0-2-5"
       cx="141.28751"
       cy="23.8125"
       r="4.7125001" />
    <circle
       style="fill:none;stroke:#ff0000;stroke-width:0.1;stroke-miterlimit:4;stroke-dasharray:none"
       id="path1222-0-2-0-8-4-1-6"
       cx="4.7620001"
       cy="14.2875"
       r="3.25" />
    <circle
       style="fill:none;stroke:#ff0000;stroke-width:0.1;stroke-miterlimit:4;stroke-dasharray:none"
       id="path1222-0-2-0-8-4-1-6-0"
       cx="141.28799"
       cy="14.288"
       r="3.25" />
    <text
       xml:space="preserve"
       style="font-size:3.88056px;line-height:1.25;font-family:sans-serif;-inkscape-font-specification:sans-serif;text-align:center;text-anchor:middle;stroke-width:0.264583"
       x="102.79063"
       y="51.72604"
       id="text34913"><tspan
         sodipodi:role="line"
         id="tspan34911"
         style="stroke-width:0.264583" /></text>
    <g
       aria-label="LN-WDJ"
       id="text18296"
       style="font-stretch:condensed;font-size:25.0003px;line-height:1.25;font-family:'Franklin Gothic Medium Cond';-inkscape-font-specification:'Franklin Gothic Medium Cond Condensed';text-align:center;text-anchor:middle;stroke-width:0.264583" />
  </g>
</svg>
